<svg width="24" height="24" viewBox="0 0 24 24" fill="none" xmlns="http://www.w3.org/2000/svg">
<path fill-rule="evenodd" clip-rule="evenodd" d="M12 22C17.5228 22 22 17.5228 22 12C22 6.47715 17.5228 2 12 2C6.47715 2 2 6.47715 2 12C2 17.5228 6.47715 22 12 22ZM15.3136 8.5496C15.757 8.07507 16.4811 8.06236 16.9394 8.51922C17.4068 8.98503 17.4208 9.76124 16.9689 10.245L11.2486 16.3679C10.6597 16.9982 9.70072 17.0307 9.07379 16.4448L7.08121 14.5825C6.60053 14.1333 6.5615 13.358 6.99893 12.8587C7.42818 12.3687 8.15163 12.3331 8.62303 12.7737L10.0881 14.143L15.3136 8.5496Z" fill="#FFFFFF"/>
</svg>
