<svg width="41" height="40" viewBox="0 0 41 40" fill="none" xmlns="http://www.w3.org/2000/svg">
<path d="M0 20C0 11.9007 0.488393 5.51613 3 3C5.51161 0.48387 11.9153 0 20 0H21.5C29.5847 0 35.4884 0.48387 38 3C40.5116 5.51613 41 10.9007 41 19V20C41 28.0993 40.5116 34.4839 38 37C35.4884 39.5161 29.0847 40 21 40H20C11.9153 40 5.51161 39.5161 3 37C0.488393 34.4839 0 29.0993 0 21V20Z" fill="url(#paint0_linear_5_152)"/>
<path d="M12.0502 19.0604C11.9022 19.0604 11.7823 18.9402 11.7823 18.7919V10.4634C11.7823 10.3151 11.6623 10.1949 11.5143 10.1949H8.60784C8.45984 10.1949 8.33987 10.0747 8.33987 9.92644V7.30201C8.33987 7.15375 8.45984 7.03355 8.60784 7.03355L18.6242 7.03355C18.7722 7.03355 18.8922 7.15375 18.8922 7.30201V9.92644C18.8922 10.0747 18.7722 10.1949 18.6242 10.1949L15.8105 10.1949C15.6625 10.1949 15.5425 10.3151 15.5425 10.4633V18.7919C15.5425 18.9402 15.4225 19.0604 15.2745 19.0604L13.6667 19.0604H12.0502Z" fill="white"/>
<path d="M27.9207 19.2537C26.9717 19.2537 26.1028 19.0991 25.3139 18.7898C24.525 18.4805 23.839 18.0453 23.2558 17.484C22.6727 16.9228 22.2211 16.2584 21.901 15.491C21.5923 14.7236 21.4379 13.8874 21.4379 12.9826C21.4379 12.0662 21.5923 11.2301 21.901 10.4741C22.2211 9.70667 22.6727 9.04233 23.2558 8.48107C23.839 7.91982 24.525 7.48457 25.3139 7.1753C26.1028 6.86604 26.966 6.71141 27.9036 6.71141C28.8526 6.71141 29.7158 6.86604 30.4933 7.1753C31.2822 7.48457 31.9682 7.91982 32.5513 8.48107C33.1344 9.04233 33.5803 9.70667 33.889 10.4741C34.2092 11.2301 34.3693 12.0605 34.3693 12.9654C34.3693 13.8817 34.2092 14.7236 33.889 15.491C33.5803 16.2584 33.1344 16.9228 32.5513 17.484C31.9682 18.0453 31.2822 18.4805 30.4933 18.7898C29.7158 19.0991 28.8583 19.2537 27.9207 19.2537ZM27.9036 15.8175C28.2923 15.8175 28.6468 15.7487 28.9669 15.6113C29.2985 15.4738 29.5843 15.2791 29.8244 15.0271C30.076 14.7637 30.2646 14.4601 30.3904 14.1165C30.5276 13.7729 30.5962 13.3949 30.5962 12.9826C30.5962 12.5702 30.5276 12.1922 30.3904 11.8486C30.2646 11.505 30.076 11.2072 29.8244 10.9552C29.5843 10.6917 29.2985 10.4913 28.9669 10.3538C28.6468 10.2164 28.2923 10.1477 27.9036 10.1477C27.5148 10.1477 27.1547 10.2164 26.8231 10.3538C26.503 10.4913 26.2171 10.6917 25.9656 10.9552C25.7255 11.2072 25.5368 11.505 25.3996 11.8486C25.2739 12.1922 25.211 12.5702 25.211 12.9826C25.211 13.3949 25.2739 13.7729 25.3996 14.1165C25.5368 14.4601 25.7255 14.7637 25.9656 15.0271C26.2171 15.2791 26.503 15.4738 26.8231 15.6113C27.1547 15.7487 27.5148 15.8175 27.9036 15.8175Z" fill="white"/>
<path d="M8.57516 32.8805C8.42717 32.8805 8.30719 32.7603 8.30719 32.6121V21.1221C8.30719 20.9739 8.42717 20.8537 8.57516 20.8537H13.5895C14.4927 20.8537 15.3217 21.0026 16.0763 21.3004C16.8309 21.5982 17.4883 22.0163 18.0486 22.5546C18.6088 23.0815 19.0376 23.7115 19.3349 24.4446C19.6436 25.1776 19.7979 25.9851 19.7979 26.8671C19.7979 27.7376 19.6436 28.5451 19.3349 29.2897C19.0376 30.0227 18.6088 30.6584 18.0486 31.1968C17.4883 31.7237 16.8309 32.136 16.0763 32.4338C15.3217 32.7316 14.4927 32.8805 13.5895 32.8805H8.57516ZM12.0117 29.4507C12.0117 29.599 12.1316 29.7192 12.2796 29.7192H12.3268H13.5037C13.881 29.7192 14.2241 29.6505 14.5328 29.513C14.8415 29.3641 15.1102 29.1637 15.3388 28.9117C15.5675 28.6597 15.7447 28.3619 15.8705 28.0182C15.9963 27.6632 16.0591 27.2795 16.0591 26.8671C16.0591 26.4548 15.9963 26.0768 15.8705 25.7331C15.7447 25.3781 15.5675 25.0745 15.3388 24.8225C15.1102 24.5706 14.8415 24.3758 14.5328 24.2384C14.2241 24.0895 13.881 24.015 13.5037 24.015H12.3268H12.2796C12.1316 24.015 12.0117 24.1352 12.0117 24.2835V29.4507Z" fill="white"/>
<path fill-rule="evenodd" clip-rule="evenodd" d="M25.2817 32.6744C26.0706 32.9836 26.9396 33.1382 27.8886 33.1382C28.8261 33.1382 29.6836 32.9836 30.4611 32.6744C31.25 32.3651 31.9361 31.9298 32.5192 31.3686C33.1023 30.8073 33.5482 30.143 33.8569 29.3756C34.177 28.6081 34.3371 27.7663 34.3371 26.8499C34.3371 25.945 34.177 25.1146 33.8569 24.3586C33.5482 23.5912 33.1023 22.9269 32.5192 22.3656C31.9361 21.8044 31.25 21.3691 30.4611 21.0599C29.6836 20.7506 28.8204 20.596 27.8714 20.596C26.9339 20.596 26.0706 20.7506 25.2817 21.0599C24.4928 21.3691 23.8068 21.8044 23.2237 22.3656C22.6406 22.9269 22.189 23.5912 21.8688 24.3586C21.5601 25.1146 21.4058 25.9508 21.4058 26.8671C21.4058 27.772 21.5601 28.6081 21.8688 29.3756C22.189 30.143 22.6406 30.8073 23.2237 31.3686C23.8068 31.9298 24.4928 32.3651 25.2817 32.6744ZM31.3204 25.9805C31.7314 25.5538 31.7193 24.874 31.2933 24.4622C30.8673 24.0504 30.1888 24.0625 29.7777 24.4893L26.6198 27.7678L25.9087 27.1232C25.4698 26.7253 24.7919 26.7592 24.3947 27.199C23.9975 27.6387 24.0314 28.3178 24.4704 28.7157L25.7587 29.8836C26.295 30.3697 27.1196 30.3417 27.6219 29.8203L31.3204 25.9805Z" fill="white"/>
<defs>
<linearGradient id="paint0_linear_5_152" x1="20.5" y1="40" x2="20.5" y2="0" gradientUnits="userSpaceOnUse">
<stop stop-color="#D07AE1"/>
<stop offset="0.23" stop-color="#9B51DE"/>
<stop offset="1" stop-color="#335ADA"/>
</linearGradient>
</defs>
</svg>
